<svg width="16" height="16" viewBox="0 0 16 16" fill="none" xmlns="http://www.w3.org/2000/svg">
<path d="M11.3333 10.6668C13.1743 10.6668 14.6667 9.17445 14.6667 7.3335C14.6667 5.8364 13.6733 4.54764 12.2796 4.13643C11.5486 2.45742 9.88174 1.3335 8.00001 1.3335C5.6232 1.3335 3.6614 3.11038 3.37053 5.40822C2.20156 5.69112 1.33334 6.74425 1.33334 8.00016C1.33334 9.47292 2.52725 10.6668 4.00001 10.6668H6.00001V9.3335H4.00001C3.26363 9.3335 2.66668 8.73654 2.66668 8.00016C2.66668 7.26378 3.26363 6.66683 4.00001 6.66683C4.3682 6.66683 4.66668 6.36835 4.66668 6.00016C4.66668 4.15921 6.15906 2.66683 8.00001 2.66683C9.43632 2.66683 10.6976 3.58367 11.1549 4.92078C11.2339 5.15174 11.4328 5.32107 11.6734 5.36218C12.626 5.52496 13.3333 6.35541 13.3333 7.3335C13.3333 8.43807 12.4379 9.3335 11.3333 9.3335H10V10.6668H11.3333Z" fill="#161F2D"/>
<path d="M7.33334 8.00016V12.324L6.47615 11.4668L5.53334 12.4096L7.53334 14.4096C7.79369 14.67 8.2158 14.67 8.47615 14.4096L10.4762 12.4096L9.53334 11.4668L8.66668 12.3335V8.00016H7.33334Z" fill="#161F2D"/>
</svg>
