<svg width="24" height="24" viewBox="0 0 24 24" fill="none" xmlns="http://www.w3.org/2000/svg">
<mask id="mask0_433_5639" style="mask-type:alpha" maskUnits="userSpaceOnUse" x="0" y="3" width="24" height="18">
<path d="M21.7143 3.42859H2.28571C1.02335 3.42859 0 4.45194 0 5.7143V18.2857C0 19.5481 1.02335 20.5714 2.28571 20.5714H21.7143C22.9767 20.5714 24 19.5481 24 18.2857V5.7143C24 4.45194 22.9767 3.42859 21.7143 3.42859Z" fill="white"/>
</mask>
<g mask="url(#mask0_433_5639)">
<path d="M21.7143 3.42859H2.28571C1.02335 3.42859 0 4.45194 0 5.7143V18.2857C0 19.5481 1.02335 20.5714 2.28571 20.5714H21.7143C22.9767 20.5714 24 19.5481 24 18.2857V5.7143C24 4.45194 22.9767 3.42859 21.7143 3.42859Z" fill="#D4112A"/>
<path fill-rule="evenodd" clip-rule="evenodd" d="M0 16H24V20.5714H0V16Z" fill="#20BD42"/>
<path fill-rule="evenodd" clip-rule="evenodd" d="M0 3.42859H24V8.00002H0V3.42859Z" fill="#02A3BD"/>
<path fill-rule="evenodd" clip-rule="evenodd" d="M0 9.14284H24V14.8571H0V9.14284ZM5.71429 7.90284C5.536 7.9657 5.34286 7.99998 5.14286 7.99998C4.19657 7.99998 3.42857 7.23198 3.42857 6.2857C3.42857 5.33941 4.19657 4.57141 5.14286 4.57141C5.34286 4.57141 5.536 4.6057 5.71429 4.66855C5.048 4.90398 4.57143 5.53941 4.57143 6.2857C4.57143 7.03198 5.048 7.66855 5.71429 7.90284Z" fill="white"/>
<path fill-rule="evenodd" clip-rule="evenodd" d="M6.85742 5.71427H8.00028V6.85713H6.85742V5.71427ZM8.00028 4.57141H9.14314V5.71427H8.00028V4.57141ZM9.14314 5.71427H10.286V6.85713H9.14314V5.71427ZM10.286 4.57141H11.4289V5.71427H10.286V4.57141ZM11.4289 5.71427H12.5717V6.85713H11.4289V5.71427ZM10.286 6.85713H11.4289V7.99998H10.286V6.85713ZM8.00028 6.85713H9.14314V7.99998H8.00028V6.85713Z" fill="#78CDDB"/>
<path d="M21.7141 4H2.28557C1.3388 4 0.571289 4.76751 0.571289 5.71429V18.2857C0.571289 19.2325 1.3388 20 2.28557 20H21.7141C22.6609 20 23.4284 19.2325 23.4284 18.2857V5.71429C23.4284 4.76751 22.6609 4 21.7141 4Z" stroke="black" stroke-opacity="0.1"/>
</g>
</svg>
