<svg width="24" height="24" viewBox="0 0 24 24" fill="none" xmlns="http://www.w3.org/2000/svg">
<mask id="mask0_476_81" style="mask-type:alpha" maskUnits="userSpaceOnUse" x="0" y="3" width="24" height="18">
<path d="M21.7143 3.42859H2.28571C1.02335 3.42859 0 4.45194 0 5.7143V18.2857C0 19.5481 1.02335 20.5714 2.28571 20.5714H21.7143C22.9767 20.5714 24 19.5481 24 18.2857V5.7143C24 4.45194 22.9767 3.42859 21.7143 3.42859Z" fill="white"/>
</mask>
<g mask="url(#mask0_476_81)">
<path d="M21.7143 3.42859H2.28571C1.02335 3.42859 0 4.45194 0 5.7143V18.2857C0 19.5481 1.02335 20.5714 2.28571 20.5714H21.7143C22.9767 20.5714 24 19.5481 24 18.2857V5.7143C24 4.45194 22.9767 3.42859 21.7143 3.42859Z" fill="#22438B"/>
<path fill-rule="evenodd" clip-rule="evenodd" d="M1.76587 3L-1 3.03592L-0.964505 5.76328L22.2191 21L25 20.9489L24.9481 18.2381L1.76587 3Z" fill="white"/>
<path fill-rule="evenodd" clip-rule="evenodd" d="M0.368421 3L-1 4.38462L23.6316 21L25 19.6154L0.368421 3Z" fill="#C7152A"/>
<path fill-rule="evenodd" clip-rule="evenodd" d="M22.2825 3H25V5.75897C25 5.75897 9.03449 15.9616 1.92542 20.9719C1.83982 21.0326 -0.789391 20.976 -0.789391 20.976L-1 18.3536L22.2825 3Z" fill="white"/>
<path fill-rule="evenodd" clip-rule="evenodd" d="M23.6904 3L25 4.42033L0.368421 21L-1 19.6184L23.6904 3Z" fill="#C7152A"/>
<path fill-rule="evenodd" clip-rule="evenodd" d="M8.57895 3H15.4211V8.53846H25V15.4615H15.4211V21H8.57895V15.4615H-1V8.53846H8.57895V3Z" fill="white"/>
<path fill-rule="evenodd" clip-rule="evenodd" d="M10.1053 3.5H13.8947V10.1538H24V13.8462H13.8947V20.5H10.1053V13.8462H0V10.1538H10.1053V3.5Z" fill="#C7152A"/>
<path d="M21.7141 4H2.28557C1.3388 4 0.571289 4.76751 0.571289 5.71429V18.2857C0.571289 19.2325 1.3388 20 2.28557 20H21.7141C22.6609 20 23.4284 19.2325 23.4284 18.2857V5.71429C23.4284 4.76751 22.6609 4 21.7141 4Z" stroke="black" stroke-opacity="0.1"/>
</g>
</svg>
