<svg width="76" height="27" viewBox="0 0 76 27" fill="none" xmlns="http://www.w3.org/2000/svg">
<path d="M29.0391 21.9998V5.50044H35.8547C37.09 5.50044 38.1561 5.72334 39.0531 6.16912C39.9554 6.60953 40.6509 7.24329 41.1396 8.07041C41.6284 8.89215 41.8728 9.86696 41.8728 10.9948C41.8728 12.1388 41.623 13.111 41.1235 13.9112C40.624 14.7061 39.9151 15.313 38.9967 15.732C38.0782 16.1455 36.9906 16.3523 35.7339 16.3523H31.4237V13.2103H34.9927C35.5942 13.2103 36.0964 13.1325 36.4992 12.9767C36.9074 12.8156 37.2162 12.5739 37.4257 12.2516C37.6351 11.924 37.7399 11.5051 37.7399 10.9948C37.7399 10.4846 37.6351 10.063 37.4257 9.73001C37.2162 9.39164 36.9074 9.13921 36.4992 8.97271C36.091 8.80085 35.5888 8.71491 34.9927 8.71491H33.0269V21.9998H29.0391ZM38.328 14.4591L42.4367 21.9998H38.0863L34.0581 14.4591H38.328Z" fill="#1929B9"/>
<path d="M44.0601 21.9998V9.62527H47.9996V21.9998H44.0601ZM46.0338 8.1832C45.4806 8.1832 45.0053 8.00059 44.6079 7.63537C44.2104 7.26478 44.0117 6.81899 44.0117 6.29802C44.0117 5.78241 44.2104 5.342 44.6079 4.97678C45.0053 4.60619 45.4806 4.4209 46.0338 4.4209C46.5924 4.4209 47.0677 4.60619 47.4598 4.97678C47.8573 5.342 48.056 5.78241 48.056 6.29802C48.056 6.81899 47.8573 7.26478 47.4598 7.63537C47.0677 8.00059 46.5924 8.1832 46.0338 8.1832Z" fill="#1929B9"/>
<path d="M50.5393 21.9998V19.7521L56.2754 12.7672V12.6867H50.7407V9.62527H60.9723V12.0905L55.6551 18.8578V18.9384H61.1656V21.9998H50.5393Z" fill="#1929B9"/>
<path d="M69.1414 22.2334C67.847 22.2334 66.7298 21.9783 65.7899 21.468C64.8554 20.9524 64.1357 20.2193 63.6308 19.2687C63.1313 18.3127 62.8816 17.1767 62.8816 15.8609C62.8816 14.5826 63.134 13.4654 63.6389 12.5094C64.1438 11.548 64.8554 10.8015 65.7738 10.2698C66.6922 9.73269 67.7745 9.46415 69.0205 9.46415C69.9013 9.46415 70.707 9.60111 71.4374 9.87502C72.1678 10.1489 72.7989 10.5544 73.3306 11.0915C73.8624 11.6286 74.2759 12.2919 74.5713 13.0814C74.8667 13.8656 75.0144 14.7652 75.0144 15.7803V16.7632H64.2592V14.4752H71.3488C71.3434 14.0562 71.2441 13.683 71.0507 13.3553C70.8573 13.0277 70.5915 12.7726 70.2531 12.59C69.9201 12.402 69.5361 12.308 69.1011 12.308C68.6607 12.308 68.2659 12.4074 67.9168 12.6061C67.5677 12.7995 67.2911 13.0653 67.087 13.4037C66.8829 13.7367 66.7755 14.1153 66.7647 14.5396V16.8679C66.7647 17.3728 66.8641 17.8159 67.0628 18.1972C67.2616 18.5731 67.5435 18.8659 67.9087 19.0753C68.274 19.2848 68.709 19.3895 69.2139 19.3895C69.563 19.3895 69.8798 19.3412 70.1645 19.2445C70.4492 19.1478 70.6935 19.0055 70.8976 18.8175C71.1017 18.6295 71.2548 18.3986 71.3568 18.1247L74.9741 18.2294C74.8237 19.0404 74.4934 19.7467 73.9832 20.3482C73.4783 20.9444 72.815 21.409 71.9933 21.742C71.1715 22.0696 70.2209 22.2334 69.1414 22.2334Z" fill="#1929B9"/>
<path d="M5.09159 5.446C5.43455 4.22149 6.55071 3.375 7.82233 3.375H21.5522C23.1184 3.375 24.3881 4.64464 24.3881 6.21082V20.7892C24.3881 22.3554 23.1184 23.625 21.5522 23.625H3.73921C1.8613 23.625 0.501997 21.8327 1.00847 20.0244L5.09159 5.446Z" fill="#1929B9"/>
<path d="M15.4313 6.56055C15.3333 7.28803 14.9976 8.19738 14.424 9.28861C13.8504 10.3658 13.1649 11.4501 12.3675 12.5413C11.584 13.6185 10.8495 14.5069 10.164 15.2064H14.3191V12.2055C14.7528 11.59 15.1934 10.8625 15.6411 10.0231C16.0888 9.18368 16.3826 8.49117 16.5225 7.94556H18.3062V15.2064H20.3208V18.2912H18.3062V21.2501H14.3191V18.2912H7.28906V15.1644C8.04453 14.0732 8.79299 12.7511 9.53447 11.1982C10.2759 9.64535 10.8705 8.09945 11.3182 6.56055H15.4313Z" fill="white"/>
</svg>
