<svg width="0" height="0" class="hidden">
  <symbol fill="none" xmlns="http://www.w3.org/2000/svg" viewBox="0 0 12 13" id="arrow-down">
    <path d="M8.65326 8.22082C8.94616 7.92793 9.42103 7.92793 9.71392 8.22082C10.0068 8.51372 10.0068 8.98859 9.71392 9.28148L6.53194 12.4635C6.23905 12.7564 5.76365 12.7558 5.47076 12.4629L2.2893 9.28148C1.99641 8.98859 1.99641 8.51372 2.2893 8.22082C2.5822 7.92793 3.05707 7.92793 3.34996 8.22082L5.25159 10.1224L5.25159 1.43115C5.25159 1.01694 5.58737 0.681152 6.00159 0.681152C6.4158 0.681152 6.75159 1.01694 6.75159 1.43115L6.75159 10.1225L8.65326 8.22082Z" fill="#1929B9"></path>
  </symbol>
  <symbol fill="none" xmlns="http://www.w3.org/2000/svg" viewBox="0 0 12 12" id="arrow">
    <path d="M9.34753 0.263992C9.01091 -0.0879976 8.46514 -0.0879974 8.12852 0.263993L3.25247 5.36267C2.91584 5.71466 2.91584 6.28534 3.25247 6.63733L8.12852 11.736C8.46514 12.088 9.01091 12.088 9.34753 11.736C9.68416 11.384 9.68415 10.8133 9.34753 10.4613L5.08099 6L9.34753 1.53866C9.68416 1.18667 9.68416 0.615982 9.34753 0.263992Z" fill="currentColor"></path>
  </symbol>
  <symbol fill="none" xmlns="http://www.w3.org/2000/svg" viewBox="0 0 12 13" id="check-icon">
    <path d="M0.370759 7.34427C-0.123586 6.83854 -0.123586 6.01858 0.370759 5.51285C0.865105 5.00711 1.6666 5.00711 2.16094 5.51285L5.3636 8.78928C5.85794 9.29501 5.85794 10.115 5.3636 10.6207C4.86925 11.1264 4.06776 11.1264 3.57341 10.6207L0.370759 7.34427Z" fill="currentColor"></path>
    <path d="M5.3636 10.6207C4.86925 11.1264 4.06776 11.1264 3.57341 10.6207C3.07907 10.115 3.07907 9.29501 3.57341 8.78928L9.83906 2.3793C10.3334 1.87357 11.1349 1.87357 11.6292 2.3793C12.1236 2.88503 12.1236 3.70499 11.6292 4.21072L5.3636 10.6207Z" fill="currentColor"></path>
  </symbol>
  <symbol fill="none" xmlns="http://www.w3.org/2000/svg" viewBox="0 0 12 12" id="close">
    <path d="M0.238645 0.238645C-0.0795504 0.55684 -0.079546 1.07273 0.238645 1.39092L4.84773 6L0.238645 10.6091C-0.0795504 10.9273 -0.079546 11.4432 0.238645 11.7614C0.556835 12.0795 1.07272 12.0795 1.39092 11.7614L6 7.15227L10.6091 11.7614C10.9273 12.0795 11.4432 12.0795 11.7614 11.7614C12.0795 11.4432 12.0795 10.9273 11.7614 10.6091L7.15227 6L11.7614 1.39092C12.0795 1.07272 12.0795 0.556835 11.7614 0.238645C11.4432 -0.079546 10.9273 -0.0795504 10.6091 0.238645L6 4.84773L1.39092 0.238645C1.07273 -0.079546 0.55684 -0.0795504 0.238645 0.238645Z" fill="currentColor"></path>
  </symbol>
  <symbol fill="none" xmlns="http://www.w3.org/2000/svg" viewBox="0 0 64 64" id="done">
    <circle cx="32" cy="32" r="32" fill="#10C76F"></circle>
    <path d="M16.9887 34.2514C15.6704 32.9028 15.6704 30.7162 16.9887 29.3676C18.3069 28.019 20.4443 28.019 21.7625 29.3676L30.3029 38.1047C31.6212 39.4534 31.6212 41.6399 30.3029 42.9885C28.9847 44.3372 26.8474 44.3372 25.5291 42.9885L16.9887 34.2514Z" fill="white"></path>
    <path d="M30.3029 42.9885C28.9847 44.3372 26.8474 44.3372 25.5291 42.9885C24.2108 41.6399 24.2108 39.4534 25.5291 38.1047L42.2375 21.0115C43.5557 19.6628 45.6931 19.6628 47.0113 21.0115C48.3296 22.3601 48.3296 24.5466 47.0113 25.8953L30.3029 42.9885Z" fill="white"></path>
  </symbol>
  <symbol fill="none" xmlns="http://www.w3.org/2000/svg" viewBox="0 0 16 16" id="hamburger-icon">
    <path d="M0 3C0 2.44772 0.447715 2 1 2H15C15.5523 2 16 2.44772 16 3C16 3.55228 15.5523 4 15 4H1C0.447715 4 0 3.55228 0 3Z" fill="white"></path>
    <path d="M0 8C0 7.44772 0.447715 7 1 7H12C12.5523 7 13 7.44772 13 8C13 8.55228 12.5523 9 12 9H1C0.447715 9 0 8.55228 0 8Z" fill="white"></path>
    <path d="M0 13C0 12.4477 0.447715 12 1 12H9C9.55229 12 10 12.4477 10 13C10 13.5523 9.55229 14 9 14H1C0.447715 14 0 13.5523 0 13Z" fill="white"></path>
  </symbol>
  <symbol fill="none" xmlns="http://www.w3.org/2000/svg" viewBox="0 0 56 56" id="lock">
    <g filter="url(#filter0_d_537_1628)">
      <circle cx="24" cy="24" r="23.5" fill="white" stroke="#D3D6DB"></circle>
      <path fill-rule="evenodd" clip-rule="evenodd" d="M17.75 23.0845V20.25C17.75 16.7982 20.5482 14 24 14C27.4518 14 30.25 16.7982 30.25 20.25V23.0845C30.9973 23.5167 31.5 24.3246 31.5 25.25V31.5C31.5 32.8807 30.3807 34 29 34H19C17.6193 34 16.5 32.8807 16.5 31.5V25.25C16.5 24.3246 17.0027 23.5167 17.75 23.0845ZM20.25 20.25C20.25 18.1789 21.9289 16.5 24 16.5C26.0711 16.5 27.75 18.1789 27.75 20.25V22.75H20.25V20.25Z" fill="#161F2D"></path>
    </g>
    <defs>
      <filter id="filter0_d_537_1628" x="0" y="0" width="56" height="56" filterUnits="userSpaceOnUse" color-interpolation-filters="sRGB">
        <feFlood flood-opacity="0" result="BackgroundImageFix"></feFlood>
        <feColorMatrix in="SourceAlpha" type="matrix" values="0 0 0 0 0 0 0 0 0 0 0 0 0 0 0 0 0 0 127 0" result="hardAlpha"></feColorMatrix>
        <feOffset dx="4" dy="4"></feOffset>
        <feGaussianBlur stdDeviation="2"></feGaussianBlur>
        <feComposite in2="hardAlpha" operator="out"></feComposite>
        <feColorMatrix type="matrix" values="0 0 0 0 0 0 0 0 0 0 0 0 0 0 0 0 0 0 0.15 0"></feColorMatrix>
        <feBlend mode="normal" in2="BackgroundImageFix" result="effect1_dropShadow_537_1628"></feBlend>
        <feBlend mode="normal" in="SourceGraphic" in2="effect1_dropShadow_537_1628" result="shape"></feBlend>
      </filter>
    </defs>
  </symbol>
  <symbol fill="none" xmlns="http://www.w3.org/2000/svg" viewBox="0 0 76 27" id="logo">
    <path d="M29.0391 21.9998V5.50044H35.8547C37.09 5.50044 38.1561 5.72334 39.0531 6.16912C39.9554 6.60953 40.6509 7.24329 41.1396 8.07041C41.6284 8.89215 41.8728 9.86696 41.8728 10.9948C41.8728 12.1388 41.623 13.111 41.1235 13.9112C40.624 14.7061 39.9151 15.313 38.9967 15.732C38.0782 16.1455 36.9906 16.3523 35.7339 16.3523H31.4237V13.2103H34.9927C35.5942 13.2103 36.0964 13.1325 36.4992 12.9767C36.9074 12.8156 37.2162 12.5739 37.4257 12.2516C37.6351 11.924 37.7399 11.5051 37.7399 10.9948C37.7399 10.4846 37.6351 10.063 37.4257 9.73001C37.2162 9.39164 36.9074 9.13921 36.4992 8.97271C36.091 8.80085 35.5888 8.71491 34.9927 8.71491H33.0269V21.9998H29.0391ZM38.328 14.4591L42.4367 21.9998H38.0863L34.0581 14.4591H38.328Z" fill="#1929B9"></path>
    <path d="M44.0601 21.9998V9.62527H47.9996V21.9998H44.0601ZM46.0338 8.1832C45.4806 8.1832 45.0053 8.00059 44.6079 7.63537C44.2104 7.26478 44.0117 6.81899 44.0117 6.29802C44.0117 5.78241 44.2104 5.342 44.6079 4.97678C45.0053 4.60619 45.4806 4.4209 46.0338 4.4209C46.5924 4.4209 47.0677 4.60619 47.4598 4.97678C47.8573 5.342 48.056 5.78241 48.056 6.29802C48.056 6.81899 47.8573 7.26478 47.4598 7.63537C47.0677 8.00059 46.5924 8.1832 46.0338 8.1832Z" fill="#1929B9"></path>
    <path d="M50.5393 21.9998V19.7521L56.2754 12.7672V12.6867H50.7407V9.62527H60.9723V12.0905L55.6551 18.8578V18.9384H61.1656V21.9998H50.5393Z" fill="#1929B9"></path>
    <path d="M69.1414 22.2334C67.847 22.2334 66.7298 21.9783 65.7899 21.468C64.8554 20.9524 64.1357 20.2193 63.6308 19.2687C63.1313 18.3127 62.8816 17.1767 62.8816 15.8609C62.8816 14.5826 63.134 13.4654 63.6389 12.5094C64.1438 11.548 64.8554 10.8015 65.7738 10.2698C66.6922 9.73269 67.7745 9.46415 69.0205 9.46415C69.9013 9.46415 70.707 9.60111 71.4374 9.87502C72.1678 10.1489 72.7989 10.5544 73.3306 11.0915C73.8624 11.6286 74.2759 12.2919 74.5713 13.0814C74.8667 13.8656 75.0144 14.7652 75.0144 15.7803V16.7632H64.2592V14.4752H71.3488C71.3434 14.0562 71.2441 13.683 71.0507 13.3553C70.8573 13.0277 70.5915 12.7726 70.2531 12.59C69.9201 12.402 69.5361 12.308 69.1011 12.308C68.6607 12.308 68.2659 12.4074 67.9168 12.6061C67.5677 12.7995 67.2911 13.0653 67.087 13.4037C66.8829 13.7367 66.7755 14.1153 66.7647 14.5396V16.8679C66.7647 17.3728 66.8641 17.8159 67.0628 18.1972C67.2616 18.5731 67.5435 18.8659 67.9087 19.0753C68.274 19.2848 68.709 19.3895 69.2139 19.3895C69.563 19.3895 69.8798 19.3412 70.1645 19.2445C70.4492 19.1478 70.6935 19.0055 70.8976 18.8175C71.1017 18.6295 71.2548 18.3986 71.3568 18.1247L74.9741 18.2294C74.8237 19.0404 74.4934 19.7467 73.9832 20.3482C73.4783 20.9444 72.815 21.409 71.9933 21.742C71.1715 22.0696 70.2209 22.2334 69.1414 22.2334Z" fill="#1929B9"></path>
    <path d="M5.09159 5.446C5.43455 4.22149 6.55071 3.375 7.82233 3.375H21.5522C23.1184 3.375 24.3881 4.64464 24.3881 6.21082V20.7892C24.3881 22.3554 23.1184 23.625 21.5522 23.625H3.73921C1.8613 23.625 0.501997 21.8327 1.00847 20.0244L5.09159 5.446Z" fill="#1929B9"></path>
    <path d="M15.4313 6.56055C15.3333 7.28803 14.9976 8.19738 14.424 9.28861C13.8504 10.3658 13.1649 11.4501 12.3675 12.5413C11.584 13.6185 10.8495 14.5069 10.164 15.2064H14.3191V12.2055C14.7528 11.59 15.1934 10.8625 15.6411 10.0231C16.0888 9.18368 16.3826 8.49117 16.5225 7.94556H18.3062V15.2064H20.3208V18.2912H18.3062V21.2501H14.3191V18.2912H7.28906V15.1644C8.04453 14.0732 8.79299 12.7511 9.53447 11.1982C10.2759 9.64535 10.8705 8.09945 11.3182 6.56055H15.4313Z" fill="white"></path>
  </symbol>
  <symbol fill="none" xmlns="http://www.w3.org/2000/svg" viewBox="0 0 16 22" id="play.png">
    <path d="M5.47348 6.82454C5.47348 6.82454 2.44621 7.15408 0.426743 7.37441C0.244723 7.39606 0.0837795 7.51564 0.0234256 7.69736C-0.0369284 7.87908 0.0234255 8.06834 0.157545 8.18791C1.65777 9.5334 3.91194 11.5483 3.91194 11.5483C3.91003 11.5483 3.29308 14.4794 2.88305 16.435C2.84856 16.612 2.91371 16.7994 3.07082 16.9114C3.22697 17.0235 3.42815 17.0254 3.58622 16.9378C5.35277 15.9511 7.99877 14.4672 7.99877 14.4672C7.99877 14.4672 10.6457 15.9511 12.4094 16.9387C12.5703 17.0254 12.7715 17.0235 12.9277 16.9114C13.0848 16.7994 13.1499 16.612 13.1145 16.436C12.7045 14.4794 12.0885 11.5483 12.0885 11.5483C12.0885 11.5483 14.3426 9.5334 15.8429 8.19074C15.977 8.0674 16.0364 7.87814 15.977 7.69736C15.9176 7.51658 15.7566 7.39701 15.5746 7.37629C13.5552 7.15409 10.5269 6.82454 10.5269 6.82454C10.5269 6.82454 9.27195 4.09591 8.43562 2.27682C8.35706 2.11393 8.19228 2 7.99877 2C7.80525 2 7.63952 2.11487 7.56479 2.27682C6.7275 4.09591 5.47348 6.82454 5.47348 6.82454Z" fill="url(#paint0_linear_537_1506)"></path>
    <defs>
      <linearGradient id="paint0_linear_537_1506" x1="8" y1="2" x2="8" y2="17" gradientUnits="userSpaceOnUse">
        <stop stop-color="#FFBD80"></stop>
        <stop offset="1" stop-color="#FF820E"></stop>
      </linearGradient>
    </defs>
  </symbol>
  <symbol fill="none" xmlns="http://www.w3.org/2000/svg" viewBox="0 0 108 43" id="rating">
    <g clip-path="url(#clip0_238_1791)">
      <path fill-rule="evenodd" clip-rule="evenodd" d="M21.3594 42.1538C32.9361 42.1538 42.3179 32.8042 42.3179 21.2673C42.3179 9.71045 32.9361 0.36084 21.3594 0.358398C9.79016 0.358398 0.398438 9.71045 0.398438 21.2673C0.398438 32.8018 9.79273 42.1538 21.3594 42.1538ZM21.357 7.51819C22.1729 7.51819 22.9789 7.55042 23.7626 7.62231V18.7723H18.9612V7.62231C19.7449 7.55042 20.5509 7.51819 21.357 7.51819ZM29.5062 12.7733C31.3786 13.1056 33.1666 13.5669 34.8605 14.1199H34.8631V22.1874C34.8631 29.5951 28.8168 35.6464 21.3594 35.6464C13.9145 35.6464 7.86817 29.5951 7.86817 22.1874V14.1199C9.56202 13.5669 11.3501 13.108 13.2226 12.7733V22.1353C13.2226 28.876 16.0994 32.4174 21.3594 32.4174C26.6393 32.4174 29.5062 28.876 29.5062 22.1353V12.7733ZM98.5354 10.8789C99.2372 9.72571 100.643 8.96191 102.521 8.96191C105.688 8.96191 107.218 10.9731 107.225 13.4581V19.4275H104.267V13.8748C104.267 12.6893 103.595 11.6428 102.169 11.6428C100.743 11.6428 100.041 12.6497 100.041 13.8326V19.4275H97.0821V13.8326C97.0821 12.6497 96.3356 11.6428 94.8997 11.6428C93.4737 11.6428 92.8438 12.6919 92.8438 13.8748V19.4275H89.8852V13.4557C89.8852 10.9731 91.5095 8.96191 94.6666 8.96191C96.281 8.96191 97.8212 9.72571 98.5354 10.8789ZM74.6654 11.6552V9.16028H65.0678V11.6552H70.752L64.8372 16.9351V19.4301H75.0225V16.9351H68.7605L74.6654 11.6552ZM84.6697 14.537C84.6697 16.1713 83.7471 16.9252 82.3832 16.9252C81.0092 16.9252 80.1189 16.1713 80.1189 14.537V9.16028H77.1603V14.6411C77.1603 18.2148 80.1387 19.6185 82.3931 19.6185C84.6176 19.6185 87.6259 18.2148 87.6259 14.6411V9.16028H84.6673V14.537H84.6697ZM59.9391 14.537C59.9391 16.1713 59.0166 16.9252 57.6526 16.9252C56.2787 16.9252 55.3883 16.1713 55.3883 14.537V9.16028H52.4297V14.6411C52.4297 18.2148 55.4082 19.6185 57.6625 19.6185C59.8871 19.6185 62.8953 18.2148 62.8953 14.6411V9.16028H59.9367V14.537H59.9391ZM57.4319 34.9623C57.8858 35.1508 58.4462 35.245 59.1109 35.245C59.7754 35.245 60.4079 35.1284 61.0081 34.9052C61.6057 34.677 62.1291 34.3447 62.5753 33.9132C63.0243 33.4817 63.3789 32.9485 63.6443 32.3136C63.9097 31.6787 64.041 30.9546 64.041 30.1436C64.041 29.3326 63.9097 28.6085 63.6443 27.9736C63.3789 27.3387 63.0243 26.8055 62.5753 26.374C62.1291 25.9425 61.6057 25.6101 61.0081 25.382C60.4103 25.1514 59.778 25.0372 59.1133 25.0372C58.4611 25.0372 57.9105 25.1117 57.4641 25.2605C57.0153 25.4093 56.6432 25.5779 56.3432 25.7689C55.991 25.9846 55.7058 26.2227 55.4876 26.4806H55.366V20.9899H52.4347V35.2275H55.366V33.4543H55.5073C55.7107 33.7916 55.9835 34.0892 56.3233 34.3497C56.606 34.5704 56.9781 34.7738 57.4319 34.9623ZM60.2814 31.9292C59.7854 32.4028 59.091 32.641 58.1933 32.641C57.298 32.641 56.6035 32.4028 56.1076 31.9292C55.6116 31.4556 55.3635 30.8578 55.3635 30.1387C55.3635 29.3922 55.6215 28.7896 56.1374 28.3282C56.6531 27.8669 57.3377 27.6364 58.1933 27.6364C59.0885 27.6364 59.7854 27.8744 60.2814 28.348C60.7774 28.8218 61.0254 29.4194 61.0254 30.1387C61.0254 30.8578 60.7774 31.4556 60.2814 31.9292ZM80.1809 25.0547H83.1148V26.8799H83.2785C83.4545 26.5352 83.705 26.2301 84.0324 25.9673C84.3052 25.7416 84.6747 25.5308 85.1433 25.3324C85.6121 25.134 86.2123 25.0348 86.9463 25.0348C87.544 25.0348 88.1045 25.1191 88.6253 25.2853C89.1461 25.4514 89.6024 25.7144 89.9893 26.074C90.3762 26.4335 90.6787 26.8873 90.897 27.433C91.1127 27.9785 91.2218 28.6307 91.2218 29.3896V35.2251H88.288V30.218C88.288 29.3451 88.05 28.6953 87.5763 28.2712C87.1001 27.8472 86.4751 27.6364 85.7014 27.6364C84.8458 27.6364 84.201 27.8794 83.767 28.3605C83.333 28.8441 83.1148 29.4641 83.1148 30.218V35.2227H80.1809V25.0547ZM96.5985 20.9874H93.6647V35.2251H96.5985V30.2428L101.162 35.2251H104.624L99.8994 29.9973L104.257 25.0547H100.814L96.5985 29.8137V20.9874ZM77.3166 31.6886V24.7942H74.2835L74.3058 26.4707C73.6461 25.4862 72.4855 24.5884 70.427 24.5884C66.8856 24.5884 65.0653 27.3387 65.0653 30.0964C65.0009 32.8889 67.0592 35.6691 70.2758 35.6691C71.9771 35.6691 73.537 34.9126 74.2835 33.5809C74.5861 34.4587 75.3449 35.421 76.9271 35.421H78.683V32.8444H78.1945C77.5769 32.8444 77.3166 32.6187 77.3166 31.6886ZM71.0669 33.0079C69.3235 33.0079 68.0239 31.8076 68.0239 30.1188C68.0239 28.4523 69.3235 27.2717 71.0669 27.2717C72.8649 27.2717 74.1645 28.4523 74.1645 30.1188C74.1645 31.8052 72.8649 33.0079 71.0669 33.0079Z" fill="#7000FF"></path>
    </g>
    <defs>
      <clipPath id="clip0_238_1791">
        <rect width="108" height="43" fill="white"></rect>
      </clipPath>
    </defs>
  </symbol>
  <symbol viewBox="0 0 108 43" fill="none" xmlns="http://www.w3.org/2000/svg" id="uzum-bank">
    <g clip-path="url(#clip0_238_1791)">
    <path fill-rule="evenodd" clip-rule="evenodd" d="M21.3594 42.1538C32.9361 42.1538 42.3179 32.8042 42.3179 21.2673C42.3179 9.71045 32.9361 0.36084 21.3594 0.358398C9.79016 0.358398 0.398438 9.71045 0.398438 21.2673C0.398438 32.8018 9.79273 42.1538 21.3594 42.1538ZM21.357 7.51819C22.1729 7.51819 22.9789 7.55042 23.7626 7.62231V18.7723H18.9612V7.62231C19.7449 7.55042 20.5509 7.51819 21.357 7.51819ZM29.5062 12.7733C31.3786 13.1056 33.1666 13.5669 34.8605 14.1199H34.8631V22.1874C34.8631 29.5951 28.8168 35.6464 21.3594 35.6464C13.9145 35.6464 7.86817 29.5951 7.86817 22.1874V14.1199C9.56202 13.5669 11.3501 13.108 13.2226 12.7733V22.1353C13.2226 28.876 16.0994 32.4174 21.3594 32.4174C26.6393 32.4174 29.5062 28.876 29.5062 22.1353V12.7733ZM98.5354 10.8789C99.2372 9.72571 100.643 8.96191 102.521 8.96191C105.688 8.96191 107.218 10.9731 107.225 13.4581V19.4275H104.267V13.8748C104.267 12.6893 103.595 11.6428 102.169 11.6428C100.743 11.6428 100.041 12.6497 100.041 13.8326V19.4275H97.0821V13.8326C97.0821 12.6497 96.3356 11.6428 94.8997 11.6428C93.4737 11.6428 92.8438 12.6919 92.8438 13.8748V19.4275H89.8852V13.4557C89.8852 10.9731 91.5095 8.96191 94.6666 8.96191C96.281 8.96191 97.8212 9.72571 98.5354 10.8789ZM74.6654 11.6552V9.16028H65.0678V11.6552H70.752L64.8372 16.9351V19.4301H75.0225V16.9351H68.7605L74.6654 11.6552ZM84.6697 14.537C84.6697 16.1713 83.7471 16.9252 82.3832 16.9252C81.0092 16.9252 80.1189 16.1713 80.1189 14.537V9.16028H77.1603V14.6411C77.1603 18.2148 80.1387 19.6185 82.3931 19.6185C84.6176 19.6185 87.6259 18.2148 87.6259 14.6411V9.16028H84.6673V14.537H84.6697ZM59.9391 14.537C59.9391 16.1713 59.0166 16.9252 57.6526 16.9252C56.2787 16.9252 55.3883 16.1713 55.3883 14.537V9.16028H52.4297V14.6411C52.4297 18.2148 55.4082 19.6185 57.6625 19.6185C59.8871 19.6185 62.8953 18.2148 62.8953 14.6411V9.16028H59.9367V14.537H59.9391ZM57.4319 34.9623C57.8858 35.1508 58.4462 35.245 59.1109 35.245C59.7754 35.245 60.4079 35.1284 61.0081 34.9052C61.6057 34.677 62.1291 34.3447 62.5753 33.9132C63.0243 33.4817 63.3789 32.9485 63.6443 32.3136C63.9097 31.6787 64.041 30.9546 64.041 30.1436C64.041 29.3326 63.9097 28.6085 63.6443 27.9736C63.3789 27.3387 63.0243 26.8055 62.5753 26.374C62.1291 25.9425 61.6057 25.6101 61.0081 25.382C60.4103 25.1514 59.778 25.0372 59.1133 25.0372C58.4611 25.0372 57.9105 25.1117 57.4641 25.2605C57.0153 25.4093 56.6432 25.5779 56.3432 25.7689C55.991 25.9846 55.7058 26.2227 55.4876 26.4806H55.366V20.9899H52.4347V35.2275H55.366V33.4543H55.5073C55.7107 33.7916 55.9835 34.0892 56.3233 34.3497C56.606 34.5704 56.9781 34.7738 57.4319 34.9623ZM60.2814 31.9292C59.7854 32.4028 59.091 32.641 58.1933 32.641C57.298 32.641 56.6035 32.4028 56.1076 31.9292C55.6116 31.4556 55.3635 30.8578 55.3635 30.1387C55.3635 29.3922 55.6215 28.7896 56.1374 28.3282C56.6531 27.8669 57.3377 27.6364 58.1933 27.6364C59.0885 27.6364 59.7854 27.8744 60.2814 28.348C60.7774 28.8218 61.0254 29.4194 61.0254 30.1387C61.0254 30.8578 60.7774 31.4556 60.2814 31.9292ZM80.1809 25.0547H83.1148V26.8799H83.2785C83.4545 26.5352 83.705 26.2301 84.0324 25.9673C84.3052 25.7416 84.6747 25.5308 85.1433 25.3324C85.6121 25.134 86.2123 25.0348 86.9463 25.0348C87.544 25.0348 88.1045 25.1191 88.6253 25.2853C89.1461 25.4514 89.6024 25.7144 89.9893 26.074C90.3762 26.4335 90.6787 26.8873 90.897 27.433C91.1127 27.9785 91.2218 28.6307 91.2218 29.3896V35.2251H88.288V30.218C88.288 29.3451 88.05 28.6953 87.5763 28.2712C87.1001 27.8472 86.4751 27.6364 85.7014 27.6364C84.8458 27.6364 84.201 27.8794 83.767 28.3605C83.333 28.8441 83.1148 29.4641 83.1148 30.218V35.2227H80.1809V25.0547ZM96.5985 20.9874H93.6647V35.2251H96.5985V30.2428L101.162 35.2251H104.624L99.8994 29.9973L104.257 25.0547H100.814L96.5985 29.8137V20.9874ZM77.3166 31.6886V24.7942H74.2835L74.3058 26.4707C73.6461 25.4862 72.4855 24.5884 70.427 24.5884C66.8856 24.5884 65.0653 27.3387 65.0653 30.0964C65.0009 32.8889 67.0592 35.6691 70.2758 35.6691C71.9771 35.6691 73.537 34.9126 74.2835 33.5809C74.5861 34.4587 75.3449 35.421 76.9271 35.421H78.683V32.8444H78.1945C77.5769 32.8444 77.3166 32.6187 77.3166 31.6886ZM71.0669 33.0079C69.3235 33.0079 68.0239 31.8076 68.0239 30.1188C68.0239 28.4523 69.3235 27.2717 71.0669 27.2717C72.8649 27.2717 74.1645 28.4523 74.1645 30.1188C74.1645 31.8052 72.8649 33.0079 71.0669 33.0079Z" fill="#7000FF"/>
    </g>
    <defs>
    <clipPath id="clip0_238_1791">
    <rect width="108" height="43" fill="white"/>
    </clipPath>
    </defs>
  </symbol>
  <symbol width="32" height="32" viewBox="0 0 32 32" fill="none" xmlns="http://www.w3.org/2000/svg" id="stretch">
    <path d="M0 8C0 3.58172 3.58172 0 8 0H24C28.4183 0 32 3.58172 32 8V24C32 28.4183 28.4183 32 24 32H8C3.58172 32 0 28.4183 0 24V8Z" fill="#1929B9"/>
    <path d="M18 10H22V14" stroke="white" stroke-width="1.33333" stroke-linecap="round" stroke-linejoin="round"/>
    <path d="M14 22H10V18" stroke="white" stroke-width="1.33333" stroke-linecap="round" stroke-linejoin="round"/>
    <path d="M22.0002 10L17.3335 14.6667" stroke="white" stroke-width="1.33333" stroke-linecap="round" stroke-linejoin="round"/>
    <path d="M10 21.9999L14.6667 17.3333" stroke="white" stroke-width="1.33333" stroke-linecap="round" stroke-linejoin="round"/>
  </symbol>
  <symbol width="16" height="16" viewBox="0 0 16 16" fill="none" xmlns="http://www.w3.org/2000/svg" id="home-icon">
    <path d="M5.66603 16C5.97294 16 6.22173 15.7499 6.22173 15.4414V9.6378H9.77826V15.4414C9.77826 15.7499 10.0271 16 10.334 16H13.6682C13.9751 16 14.2239 15.7499 14.2239 15.4414V7.8504H15.4432C15.9525 7.8504 16.1935 7.21911 15.8149 6.87666L8.37175 0.143386C8.16041 -0.0477958 7.83959 -0.0477951 7.62825 0.143387L0.185077 6.87666C-0.193481 7.21911 0.0475284 7.8504 0.556826 7.8504H1.77607V15.4414C1.77607 15.7499 2.02487 16 2.33178 16H5.66603Z" fill="currentColor"/>
  </symbol>
  <symbol width="16" height="16" viewBox="0 0 16 16" fill="none" xmlns="http://www.w3.org/2000/svg" id="show-icon">
    <path d="M8 10C9.10457 10 10 9.10457 10 8C10 6.89543 9.10457 6 8 6C6.89543 6 6 6.89543 6 8C6 9.10457 6.89543 10 8 10Z" fill="currentColor"/>
    <path fill-rule="evenodd" clip-rule="evenodd" d="M16 8C16 10 12.4183 14 8 14C3.58172 14 0 10 0 8C0 6 3.58172 2 8 2C12.4183 2 16 6 16 8ZM12 8C12 10.2091 10.2091 12 8 12C5.79086 12 4 10.2091 4 8C4 5.79086 5.79086 4 8 4C10.2091 4 12 5.79086 12 8Z" fill="currentColor"/>
  </symbol>
  <symbol width="16" height="16" viewBox="0 0 16 16" fill="none" xmlns="http://www.w3.org/2000/svg" id="hide-icon">
    <path d="M14.3415 0C14.1245 0 13.918 0.0936805 13.7751 0.257001L1.09213 14.7518C0.666355 15.2385 1.01192 16 1.6585 16C1.87552 16 2.08197 15.9063 2.22488 15.743L14.9079 1.24815C15.3336 0.761549 14.9881 0 14.3415 0Z" fill="currentColor"/>
    <path d="M8 2C8.91026 2 9.785 2.16978 10.6002 2.45687L9.11278 4.15682C8.75952 4.05472 8.38615 4 8 4C5.79086 4 4 5.79086 4 8C4 8.57394 4.12088 9.11966 4.33857 9.61306L2.41499 11.8114C0.925113 10.5495 0 9.01644 0 8C0 6 3.58172 2 8 2Z" fill="currentColor"/>
    <path d="M8 12C7.61385 12 7.24048 11.9453 6.88722 11.8432L5.39976 13.5431C6.21499 13.8302 7.08974 14 8 14C12.4183 14 16 10 16 8C16 6.98356 15.0749 5.45055 13.585 4.18856L11.6614 6.38694C11.8791 6.88035 12 7.42606 12 8C12 10.2091 10.2091 12 8 12Z" fill="currentColor"/>
  </symbol>
  <symbol width="16" height="16" viewBox="0 0 16 16" fill="none" xmlns="http://www.w3.org/2000/svg" id="download">
    <path d="M11.3333 10.6668C13.1743 10.6668 14.6667 9.17445 14.6667 7.3335C14.6667 5.8364 13.6733 4.54764 12.2796 4.13643C11.5486 2.45742 9.88174 1.3335 8.00001 1.3335C5.6232 1.3335 3.6614 3.11038 3.37053 5.40822C2.20156 5.69112 1.33334 6.74425 1.33334 8.00016C1.33334 9.47292 2.52725 10.6668 4.00001 10.6668H6.00001V9.3335H4.00001C3.26363 9.3335 2.66668 8.73654 2.66668 8.00016C2.66668 7.26378 3.26363 6.66683 4.00001 6.66683C4.3682 6.66683 4.66668 6.36835 4.66668 6.00016C4.66668 4.15921 6.15906 2.66683 8.00001 2.66683C9.43632 2.66683 10.6976 3.58367 11.1549 4.92078C11.2339 5.15174 11.4328 5.32107 11.6734 5.36218C12.626 5.52496 13.3333 6.35541 13.3333 7.3335C13.3333 8.43807 12.4379 9.3335 11.3333 9.3335H10V10.6668H11.3333Z" fill="#161F2D"/>
    <path d="M7.33334 8.00016V12.324L6.47615 11.4668L5.53334 12.4096L7.53334 14.4096C7.79369 14.67 8.2158 14.67 8.47615 14.4096L10.4762 12.4096L9.53334 11.4668L8.66668 12.3335V8.00016H7.33334Z" fill="#161F2D"/>
  </symbol>
  <symbol width="16" height="16" viewBox="0 0 16 16" fill="none" xmlns="http://www.w3.org/2000/svg" id="eye-icon">
    <path d="M8 10C9.10457 10 10 9.10457 10 8C10 6.89543 9.10457 6 8 6C6.89543 6 6 6.89543 6 8C6 9.10457 6.89543 10 8 10Z" fill="currentColor"/>
    <path fill-rule="evenodd" clip-rule="evenodd" d="M16 8C16 10 12.4183 14 8 14C3.58172 14 0 10 0 8C0 6 3.58172 2 8 2C12.4183 2 16 6 16 8ZM12 8C12 10.2091 10.2091 12 8 12C5.79086 12 4 10.2091 4 8C4 5.79086 5.79086 4 8 4C10.2091 4 12 5.79086 12 8Z" fill="currentColor"/>
  </symbol>
</svg>