<svg width="12" height="13" viewBox="0 0 12 13" fill="none" xmlns="http://www.w3.org/2000/svg">
<path d="M0.370759 7.34427C-0.123586 6.83854 -0.123586 6.01858 0.370759 5.51285C0.865105 5.00711 1.6666 5.00711 2.16094 5.51285L5.3636 8.78928C5.85794 9.29501 5.85794 10.115 5.3636 10.6207C4.86925 11.1264 4.06776 11.1264 3.57341 10.6207L0.370759 7.34427Z" fill="white"/>
<path d="M5.3636 10.6207C4.86925 11.1264 4.06776 11.1264 3.57341 10.6207C3.07907 10.115 3.07907 9.29501 3.57341 8.78928L9.83906 2.3793C10.3334 1.87357 11.1349 1.87357 11.6292 2.3793C12.1236 2.88503 12.1236 3.70499 11.6292 4.21072L5.3636 10.6207Z" fill="white"/>
</svg>
