<svg width="24" height="24" viewBox="0 0 24 24" fill="none" xmlns="http://www.w3.org/2000/svg">
<path d="M0.477289 0.477289C-0.159101 1.11368 -0.159092 2.14545 0.477289 2.78183L9.69546 12L0.477289 21.2182C-0.159101 21.8546 -0.159092 22.8863 0.477289 23.5227C1.11367 24.1591 2.14544 24.1591 2.78183 23.5227L12 14.3045L21.2182 23.5227C21.8545 24.1591 22.8863 24.1591 23.5227 23.5227C24.1591 22.8863 24.1591 21.8545 23.5227 21.2182L14.3045 12L23.5227 2.78183C24.1591 2.14544 24.1591 1.11367 23.5227 0.477289C22.8863 -0.159092 21.8546 -0.159101 21.2182 0.477289L12 9.69546L2.78183 0.477289C2.14545 -0.159092 1.11368 -0.159101 0.477289 0.477289Z" fill="#D21061"/>
</svg>
