<svg width="64" height="64" viewBox="0 0 64 64" fill="none" xmlns="http://www.w3.org/2000/svg">
<circle cx="32" cy="32" r="32" fill="#10C76F"/>
<path d="M16.9887 34.2514C15.6704 32.9028 15.6704 30.7162 16.9887 29.3676C18.3069 28.019 20.4443 28.019 21.7625 29.3676L30.3029 38.1047C31.6212 39.4534 31.6212 41.6399 30.3029 42.9885C28.9847 44.3372 26.8474 44.3372 25.5291 42.9885L16.9887 34.2514Z" fill="white"/>
<path d="M30.3029 42.9885C28.9847 44.3372 26.8474 44.3372 25.5291 42.9885C24.2108 41.6399 24.2108 39.4534 25.5291 38.1047L42.2375 21.0115C43.5557 19.6628 45.6931 19.6628 47.0113 21.0115C48.3296 22.3601 48.3296 24.5466 47.0113 25.8953L30.3029 42.9885Z" fill="white"/>
</svg>
