<svg width="24" height="24" viewBox="0 0 24 24" fill="none" xmlns="http://www.w3.org/2000/svg">
<mask id="mask0_433_5336" style="mask-type:alpha" maskUnits="userSpaceOnUse" x="0" y="3" width="24" height="18">
<path d="M21.7143 3.42859H2.28571C1.02335 3.42859 0 4.45194 0 5.7143V18.2857C0 19.5481 1.02335 20.5714 2.28571 20.5714H21.7143C22.9767 20.5714 24 19.5481 24 18.2857V5.7143C24 4.45194 22.9767 3.42859 21.7143 3.42859Z" fill="white"/>
</mask>
<g mask="url(#mask0_433_5336)">
<path d="M21.7143 3.42859H2.28571C1.02335 3.42859 0 4.45194 0 5.7143V18.2857C0 19.5481 1.02335 20.5714 2.28571 20.5714H21.7143C22.9767 20.5714 24 19.5481 24 18.2857V5.7143C24 4.45194 22.9767 3.42859 21.7143 3.42859Z" fill="#0034A9"/>
<path fill-rule="evenodd" clip-rule="evenodd" d="M0 14.8572H24V20.5715H0V14.8572Z" fill="#D7280F"/>
<path fill-rule="evenodd" clip-rule="evenodd" d="M0 3.42859H24V9.14287H0V3.42859Z" fill="white"/>
<path d="M21.7141 4H2.28557C1.3388 4 0.571289 4.76751 0.571289 5.71429V18.2857C0.571289 19.2325 1.3388 20 2.28557 20H21.7141C22.6609 20 23.4284 19.2325 23.4284 18.2857V5.71429C23.4284 4.76751 22.6609 4 21.7141 4Z" stroke="black" stroke-opacity="0.1"/>
</g>
</svg>
