<svg width="56" height="56" viewBox="0 0 56 56" fill="none" xmlns="http://www.w3.org/2000/svg">
<g filter="url(#filter0_d_537_1628)">
<circle cx="24" cy="24" r="23.5" fill="white" stroke="#D3D6DB"/>
<path fill-rule="evenodd" clip-rule="evenodd" d="M17.75 23.0845V20.25C17.75 16.7982 20.5482 14 24 14C27.4518 14 30.25 16.7982 30.25 20.25V23.0845C30.9973 23.5167 31.5 24.3246 31.5 25.25V31.5C31.5 32.8807 30.3807 34 29 34H19C17.6193 34 16.5 32.8807 16.5 31.5V25.25C16.5 24.3246 17.0027 23.5167 17.75 23.0845ZM20.25 20.25C20.25 18.1789 21.9289 16.5 24 16.5C26.0711 16.5 27.75 18.1789 27.75 20.25V22.75H20.25V20.25Z" fill="#161F2D"/>
</g>
<defs>
<filter id="filter0_d_537_1628" x="0" y="0" width="56" height="56" filterUnits="userSpaceOnUse" color-interpolation-filters="sRGB">
<feFlood flood-opacity="0" result="BackgroundImageFix"/>
<feColorMatrix in="SourceAlpha" type="matrix" values="0 0 0 0 0 0 0 0 0 0 0 0 0 0 0 0 0 0 127 0" result="hardAlpha"/>
<feOffset dx="4" dy="4"/>
<feGaussianBlur stdDeviation="2"/>
<feComposite in2="hardAlpha" operator="out"/>
<feColorMatrix type="matrix" values="0 0 0 0 0 0 0 0 0 0 0 0 0 0 0 0 0 0 0.15 0"/>
<feBlend mode="normal" in2="BackgroundImageFix" result="effect1_dropShadow_537_1628"/>
<feBlend mode="normal" in="SourceGraphic" in2="effect1_dropShadow_537_1628" result="shape"/>
</filter>
</defs>
</svg>
