<svg width="16" height="22" viewBox="0 0 16 22" fill="none" xmlns="http://www.w3.org/2000/svg">
<path d="M5.47348 6.82454C5.47348 6.82454 2.44621 7.15408 0.426743 7.37441C0.244723 7.39606 0.0837795 7.51564 0.0234256 7.69736C-0.0369284 7.87908 0.0234255 8.06834 0.157545 8.18791C1.65777 9.5334 3.91194 11.5483 3.91194 11.5483C3.91003 11.5483 3.29308 14.4794 2.88305 16.435C2.84856 16.612 2.91371 16.7994 3.07082 16.9114C3.22697 17.0235 3.42815 17.0254 3.58622 16.9378C5.35277 15.9511 7.99877 14.4672 7.99877 14.4672C7.99877 14.4672 10.6457 15.9511 12.4094 16.9387C12.5703 17.0254 12.7715 17.0235 12.9277 16.9114C13.0848 16.7994 13.1499 16.612 13.1145 16.436C12.7045 14.4794 12.0885 11.5483 12.0885 11.5483C12.0885 11.5483 14.3426 9.5334 15.8429 8.19074C15.977 8.0674 16.0364 7.87814 15.977 7.69736C15.9176 7.51658 15.7566 7.39701 15.5746 7.37629C13.5552 7.15409 10.5269 6.82454 10.5269 6.82454C10.5269 6.82454 9.27195 4.09591 8.43562 2.27682C8.35706 2.11393 8.19228 2 7.99877 2C7.80525 2 7.63952 2.11487 7.56479 2.27682C6.7275 4.09591 5.47348 6.82454 5.47348 6.82454Z" fill="url(#paint0_linear_537_1506)"/>
<defs>
<linearGradient id="paint0_linear_537_1506" x1="8" y1="2" x2="8" y2="17" gradientUnits="userSpaceOnUse">
<stop stop-color="#FFBD80"/>
<stop offset="1" stop-color="#FF820E"/>
</linearGradient>
</defs>
</svg>
