<svg width="108" height="43" viewBox="0 0 108 43" fill="none" xmlns="http://www.w3.org/2000/svg">
<g clip-path="url(#clip0_238_1791)">
<path fill-rule="evenodd" clip-rule="evenodd" d="M21.3594 42.1538C32.9361 42.1538 42.3179 32.8042 42.3179 21.2673C42.3179 9.71045 32.9361 0.36084 21.3594 0.358398C9.79016 0.358398 0.398438 9.71045 0.398438 21.2673C0.398438 32.8018 9.79273 42.1538 21.3594 42.1538ZM21.357 7.51819C22.1729 7.51819 22.9789 7.55042 23.7626 7.62231V18.7723H18.9612V7.62231C19.7449 7.55042 20.5509 7.51819 21.357 7.51819ZM29.5062 12.7733C31.3786 13.1056 33.1666 13.5669 34.8605 14.1199H34.8631V22.1874C34.8631 29.5951 28.8168 35.6464 21.3594 35.6464C13.9145 35.6464 7.86817 29.5951 7.86817 22.1874V14.1199C9.56202 13.5669 11.3501 13.108 13.2226 12.7733V22.1353C13.2226 28.876 16.0994 32.4174 21.3594 32.4174C26.6393 32.4174 29.5062 28.876 29.5062 22.1353V12.7733ZM98.5354 10.8789C99.2372 9.72571 100.643 8.96191 102.521 8.96191C105.688 8.96191 107.218 10.9731 107.225 13.4581V19.4275H104.267V13.8748C104.267 12.6893 103.595 11.6428 102.169 11.6428C100.743 11.6428 100.041 12.6497 100.041 13.8326V19.4275H97.0821V13.8326C97.0821 12.6497 96.3356 11.6428 94.8997 11.6428C93.4737 11.6428 92.8438 12.6919 92.8438 13.8748V19.4275H89.8852V13.4557C89.8852 10.9731 91.5095 8.96191 94.6666 8.96191C96.281 8.96191 97.8212 9.72571 98.5354 10.8789ZM74.6654 11.6552V9.16028H65.0678V11.6552H70.752L64.8372 16.9351V19.4301H75.0225V16.9351H68.7605L74.6654 11.6552ZM84.6697 14.537C84.6697 16.1713 83.7471 16.9252 82.3832 16.9252C81.0092 16.9252 80.1189 16.1713 80.1189 14.537V9.16028H77.1603V14.6411C77.1603 18.2148 80.1387 19.6185 82.3931 19.6185C84.6176 19.6185 87.6259 18.2148 87.6259 14.6411V9.16028H84.6673V14.537H84.6697ZM59.9391 14.537C59.9391 16.1713 59.0166 16.9252 57.6526 16.9252C56.2787 16.9252 55.3883 16.1713 55.3883 14.537V9.16028H52.4297V14.6411C52.4297 18.2148 55.4082 19.6185 57.6625 19.6185C59.8871 19.6185 62.8953 18.2148 62.8953 14.6411V9.16028H59.9367V14.537H59.9391ZM57.4319 34.9623C57.8858 35.1508 58.4462 35.245 59.1109 35.245C59.7754 35.245 60.4079 35.1284 61.0081 34.9052C61.6057 34.677 62.1291 34.3447 62.5753 33.9132C63.0243 33.4817 63.3789 32.9485 63.6443 32.3136C63.9097 31.6787 64.041 30.9546 64.041 30.1436C64.041 29.3326 63.9097 28.6085 63.6443 27.9736C63.3789 27.3387 63.0243 26.8055 62.5753 26.374C62.1291 25.9425 61.6057 25.6101 61.0081 25.382C60.4103 25.1514 59.778 25.0372 59.1133 25.0372C58.4611 25.0372 57.9105 25.1117 57.4641 25.2605C57.0153 25.4093 56.6432 25.5779 56.3432 25.7689C55.991 25.9846 55.7058 26.2227 55.4876 26.4806H55.366V20.9899H52.4347V35.2275H55.366V33.4543H55.5073C55.7107 33.7916 55.9835 34.0892 56.3233 34.3497C56.606 34.5704 56.9781 34.7738 57.4319 34.9623ZM60.2814 31.9292C59.7854 32.4028 59.091 32.641 58.1933 32.641C57.298 32.641 56.6035 32.4028 56.1076 31.9292C55.6116 31.4556 55.3635 30.8578 55.3635 30.1387C55.3635 29.3922 55.6215 28.7896 56.1374 28.3282C56.6531 27.8669 57.3377 27.6364 58.1933 27.6364C59.0885 27.6364 59.7854 27.8744 60.2814 28.348C60.7774 28.8218 61.0254 29.4194 61.0254 30.1387C61.0254 30.8578 60.7774 31.4556 60.2814 31.9292ZM80.1809 25.0547H83.1148V26.8799H83.2785C83.4545 26.5352 83.705 26.2301 84.0324 25.9673C84.3052 25.7416 84.6747 25.5308 85.1433 25.3324C85.6121 25.134 86.2123 25.0348 86.9463 25.0348C87.544 25.0348 88.1045 25.1191 88.6253 25.2853C89.1461 25.4514 89.6024 25.7144 89.9893 26.074C90.3762 26.4335 90.6787 26.8873 90.897 27.433C91.1127 27.9785 91.2218 28.6307 91.2218 29.3896V35.2251H88.288V30.218C88.288 29.3451 88.05 28.6953 87.5763 28.2712C87.1001 27.8472 86.4751 27.6364 85.7014 27.6364C84.8458 27.6364 84.201 27.8794 83.767 28.3605C83.333 28.8441 83.1148 29.4641 83.1148 30.218V35.2227H80.1809V25.0547ZM96.5985 20.9874H93.6647V35.2251H96.5985V30.2428L101.162 35.2251H104.624L99.8994 29.9973L104.257 25.0547H100.814L96.5985 29.8137V20.9874ZM77.3166 31.6886V24.7942H74.2835L74.3058 26.4707C73.6461 25.4862 72.4855 24.5884 70.427 24.5884C66.8856 24.5884 65.0653 27.3387 65.0653 30.0964C65.0009 32.8889 67.0592 35.6691 70.2758 35.6691C71.9771 35.6691 73.537 34.9126 74.2835 33.5809C74.5861 34.4587 75.3449 35.421 76.9271 35.421H78.683V32.8444H78.1945C77.5769 32.8444 77.3166 32.6187 77.3166 31.6886ZM71.0669 33.0079C69.3235 33.0079 68.0239 31.8076 68.0239 30.1188C68.0239 28.4523 69.3235 27.2717 71.0669 27.2717C72.8649 27.2717 74.1645 28.4523 74.1645 30.1188C74.1645 31.8052 72.8649 33.0079 71.0669 33.0079Z" fill="#7000FF"/>
</g>
<defs>
<clipPath id="clip0_238_1791">
<rect width="108" height="43" fill="white"/>
</clipPath>
</defs>
</svg>
